<svg width="110" height="110" viewBox="0 0 110 110" fill="none" xmlns="http://www.w3.org/2000/svg">
<circle cx="55" cy="55" r="54" stroke="#2D4497" stroke-width="2"/>
<path d="M55 59C54.6925 59 54.3985 58.874 54.187 58.652L46.312 50.402C45.6295 49.688 46.1365 48.5 47.125 48.5H51.25V39.875C51.25 38.8415 52.0915 38 53.125 38H56.875C57.9085 38 58.75 38.8415 58.75 39.875V48.5H62.875C63.8635 48.5 64.3705 49.688 63.688 50.402L55.813 58.652C55.6015 58.874 55.3075 59 55 59Z" fill="#2D4497"/>
<path d="M68.5 68H41.5C39.019 68 37 65.981 37 63.5V56C37 53.519 39.019 51.5 41.5 51.5H43.75C44.578 51.5 45.25 52.172 45.25 53C45.25 53.828 44.578 54.5 43.75 54.5H41.5C40.6735 54.5 40 55.1735 40 56V63.5C40 64.3265 40.6735 65 41.5 65H68.5C69.3265 65 70 64.3265 70 63.5V56C70 55.1735 69.3265 54.5 68.5 54.5H66.25C65.422 54.5 64.75 53.828 64.75 53C64.75 52.172 65.422 51.5 66.25 51.5H68.5C70.981 51.5 73 53.519 73 56V63.5C73 65.981 70.981 68 68.5 68Z" fill="#2D4497"/>
<mask id="path-4-outside-1" maskUnits="userSpaceOnUse" x="47.1368" y="58.6368" width="16" height="16" fill="black">
<rect fill="white" x="47.1368" y="58.6368" width="16" height="16"/>
<path fill-rule="evenodd" clip-rule="evenodd" d="M59.2842 70.7842C59.8846 70.1838 59.8846 69.2104 59.2842 68.61L57.2108 66.5365L59.4859 64.2614C60.0863 63.661 60.0863 62.6876 59.4859 62.0872C58.8854 61.4867 57.912 61.4867 57.3116 62.0872L55.0365 64.3622L52.7614 62.0871C52.161 61.4867 51.1876 61.4867 50.5871 62.0871C49.9867 62.6876 49.9867 63.661 50.5871 64.2614L52.8622 66.5365L50.7888 68.61C50.1884 69.2104 50.1884 70.1838 50.7888 70.7842C51.3892 71.3847 52.3626 71.3847 52.963 70.7842L55.0365 68.7108L57.11 70.7842C57.7104 71.3846 58.6838 71.3846 59.2842 70.7842Z"/>
</mask>
<path fill-rule="evenodd" clip-rule="evenodd" d="M59.2842 70.7842C59.8846 70.1838 59.8846 69.2104 59.2842 68.61L57.2108 66.5365L59.4859 64.2614C60.0863 63.661 60.0863 62.6876 59.4859 62.0872C58.8854 61.4867 57.912 61.4867 57.3116 62.0872L55.0365 64.3622L52.7614 62.0871C52.161 61.4867 51.1876 61.4867 50.5871 62.0871C49.9867 62.6876 49.9867 63.661 50.5871 64.2614L52.8622 66.5365L50.7888 68.61C50.1884 69.2104 50.1884 70.1838 50.7888 70.7842C51.3892 71.3847 52.3626 71.3847 52.963 70.7842L55.0365 68.7108L57.11 70.7842C57.7104 71.3846 58.6838 71.3846 59.2842 70.7842Z" fill="#2D4497"/>
<path d="M57.2108 66.5365L55.0895 64.4152L52.9681 66.5365L55.0895 68.6578L57.2108 66.5365ZM59.4859 64.2614L57.3645 62.1401L57.3645 62.1401L59.4859 64.2614ZM59.4859 62.0872L61.6072 59.9658H61.6072L59.4859 62.0872ZM57.3116 62.0872L59.4329 64.2085V64.2085L57.3116 62.0872ZM55.0365 64.3622L52.9152 66.4836L55.0365 68.6049L57.1578 66.4836L55.0365 64.3622ZM52.7614 62.0871L50.6401 64.2085H50.6401L52.7614 62.0871ZM50.5871 62.0871L52.7085 64.2085L52.7085 64.2085L50.5871 62.0871ZM50.5871 64.2614L48.4658 66.3827H48.4658L50.5871 64.2614ZM52.8622 66.5365L54.9836 68.6578L57.1049 66.5365L54.9836 64.4152L52.8622 66.5365ZM50.7888 68.61L48.6674 66.4887L50.7888 68.61ZM50.7888 70.7842L48.6674 72.9056L50.7888 70.7842ZM52.963 70.7842L50.8417 68.6629H50.8417L52.963 70.7842ZM55.0365 68.7108L57.1578 66.5895L55.0365 64.4681L52.9152 66.5895L55.0365 68.7108ZM57.1629 70.7313C56.5918 70.1601 56.5918 69.2341 57.1629 68.6629L61.4056 72.9056C63.1775 71.1336 63.1775 68.2606 61.4056 66.4886L57.1629 70.7313ZM55.0895 68.6578L57.1629 70.7313L61.4056 66.4886L59.3321 64.4152L55.0895 68.6578ZM57.3645 62.1401L55.0895 64.4152L59.3321 68.6578L61.6072 66.3827L57.3645 62.1401ZM57.3645 64.2085C56.7934 63.6373 56.7934 62.7113 57.3645 62.1401L61.6072 66.3827C63.3792 64.6108 63.3792 61.7378 61.6072 59.9658L57.3645 64.2085ZM59.4329 64.2085C58.8617 64.7796 57.9357 64.7796 57.3645 64.2085L61.6072 59.9658C59.8352 58.1939 56.9622 58.1939 55.1903 59.9658L59.4329 64.2085ZM57.1578 66.4836L59.4329 64.2085L55.1903 59.9658L52.9152 62.2409L57.1578 66.4836ZM50.6401 64.2085L52.9152 66.4836L57.1578 62.2409L54.8827 59.9658L50.6401 64.2085ZM52.7085 64.2085C52.1373 64.7796 51.2113 64.7796 50.6401 64.2085L54.8827 59.9658C53.1108 58.1938 50.2378 58.1938 48.4658 59.9658L52.7085 64.2085ZM52.7085 62.1401C53.2796 62.7113 53.2796 63.6373 52.7085 64.2085L48.4658 59.9658C46.6938 61.7378 46.6938 64.6108 48.4658 66.3827L52.7085 62.1401ZM54.9836 64.4152L52.7085 62.1401L48.4658 66.3827L50.7409 68.6578L54.9836 64.4152ZM52.9101 70.7313L54.9836 68.6578L50.7409 64.4152L48.6674 66.4887L52.9101 70.7313ZM52.9101 68.6629C53.4812 69.2341 53.4812 70.1601 52.9101 70.7313L48.6674 66.4887C46.8955 68.2606 46.8955 71.1336 48.6674 72.9056L52.9101 68.6629ZM50.8417 68.6629C51.4129 68.0918 52.3389 68.0918 52.9101 68.6629L48.6674 72.9056C50.4394 74.6775 53.3124 74.6775 55.0844 72.9056L50.8417 68.6629ZM52.9152 66.5895L50.8417 68.6629L55.0844 72.9056L57.1578 70.8321L52.9152 66.5895ZM59.2313 68.6629L57.1578 66.5895L52.9152 70.8321L54.9886 72.9056L59.2313 68.6629ZM57.1629 68.6629C57.7341 68.0918 58.6601 68.0918 59.2313 68.6629L54.9886 72.9056C56.7606 74.6775 59.6336 74.6775 61.4056 72.9056L57.1629 68.6629Z" fill="white" mask="url(#path-4-outside-1)"/>
</svg>
