<svg width="110" height="110" viewBox="0 0 110 110" fill="none" xmlns="http://www.w3.org/2000/svg">
<circle cx="55" cy="55" r="54" fill="#2D4497" stroke="#2D4497" stroke-width="2"/>
<path d="M37 53.9453H44.4803C44.5495 51.3047 44.8724 48.8171 45.4109 46.5625H39.1883C37.9974 48.7854 37.1557 51.2903 37 53.9453V53.9453Z" fill="white"/>
<path d="M44.4803 56.0547H37C37.1557 58.7097 37.9974 61.2146 39.1883 63.4375H45.4109C44.8725 61.1829 44.5495 58.6953 44.4803 56.0547Z" fill="white"/>
<path d="M53.9453 53.9453V46.5625H47.5918C47.0145 48.7967 46.6649 51.307 46.5885 53.9453H53.9453Z" fill="white"/>
<path d="M53.9453 44.4531V37C51.6358 37.645 49.5899 40.596 48.2398 44.4531H53.9453Z" fill="white"/>
<path d="M53.9453 73V65.5469H48.2398C49.5899 69.404 51.6358 72.355 53.9453 73Z" fill="white"/>
<path d="M56.0547 37V44.4531H61.7602C60.4101 40.596 58.3642 37.645 56.0547 37Z" fill="white"/>
<path d="M63.4115 53.9453C63.335 51.307 62.9855 48.7967 62.4082 46.5625H56.0547V53.9453H63.4115Z" fill="white"/>
<path d="M53.9453 56.0547H46.5885C46.665 58.6931 47.0145 61.2032 47.5918 63.4375H53.9453V56.0547Z" fill="white"/>
<path d="M64.0007 44.4531H69.4675C67.2844 41.4667 64.211 38.9438 60.6304 37.7554C62.0065 39.3799 63.1574 41.8227 64.0007 44.4531Z" fill="white"/>
<path d="M45.9992 65.5469H40.5324C42.7155 68.5333 45.789 71.0562 49.3696 72.2446C47.9935 70.6201 46.8425 68.1773 45.9992 65.5469Z" fill="white"/>
<path d="M45.9992 44.4531C46.8425 41.8227 47.9935 39.3799 49.3695 37.7554C45.789 38.9438 42.7155 41.4667 40.5324 44.4531H45.9992Z" fill="white"/>
<path d="M64.0008 65.5469C63.1575 68.1773 62.0065 70.6201 60.6305 72.2446C64.211 71.0562 67.2844 68.5333 69.4677 65.5469H64.0008Z" fill="white"/>
<path d="M56.0547 56.0547V63.4375H62.4082C62.9855 61.2032 63.3351 58.6931 63.4115 56.0547H56.0547Z" fill="white"/>
<path d="M64.5892 46.5625C65.1276 48.8171 65.4505 51.3047 65.5198 53.9453H73C72.8444 51.2903 72.0026 48.7854 70.8117 46.5625H64.5892Z" fill="white"/>
<path d="M56.0547 65.5469V73C58.3642 72.355 60.4101 69.404 61.7602 65.5469H56.0547Z" fill="white"/>
<path d="M73 56.0547H65.5198C65.4505 58.6953 65.1276 61.1829 64.5892 63.4375H70.8118C72.0026 61.2146 72.8444 58.7097 73 56.0547Z" fill="white"/>
</svg>
