<svg width="110" height="110" viewBox="0 0 110 110" fill="none" xmlns="http://www.w3.org/2000/svg">
<circle cx="55" cy="55" r="54" fill="#2D4497" stroke="#2D4497" stroke-width="2"/>
<path fill-rule="evenodd" clip-rule="evenodd" d="M53.3718 62H63.8718C64.4949 62 65 61.4939 65 60.8697V35.1303C65 34.5061 64.4949 34 63.8718 34H45.1282C44.5051 34 44 34.5061 44 35.1303V60.8697C44 61.4939 44.5051 62 45.1282 62H53.3718ZM58.0546 53.7429C58.0821 54.3569 58.5516 54.8762 59.1858 54.8762C59.7776 54.8762 60.3444 54.3549 60.3171 53.7429C60.2896 53.1288 59.82 52.6096 59.1858 52.6096C58.5941 52.6096 58.0272 53.1309 58.0546 53.7429ZM59.1859 39.9935H49.8141C49.191 39.9935 48.6859 40.4996 48.6859 41.1238C48.6859 41.748 49.191 42.2541 49.8141 42.2541H59.1859C59.809 42.2541 60.3141 41.748 60.3141 41.1238C60.3141 40.4996 59.809 39.9935 59.1859 39.9935ZM59.1859 44.9932H49.8141C49.191 44.9932 48.6859 45.4993 48.6859 46.1235C48.6859 46.7477 49.191 47.2538 49.8141 47.2538H59.1859C59.809 47.2538 60.3141 46.7477 60.3141 46.1235C60.3141 45.4993 59.809 44.9932 59.1859 44.9932ZM48.6829 53.7429C48.7103 54.3569 49.1799 54.8762 49.8141 54.8762C50.4058 54.8762 50.9727 54.3549 50.9453 53.7429C50.9179 53.1288 50.4483 52.6096 49.8141 52.6096C49.2224 52.6096 48.6555 53.1309 48.6829 53.7429ZM54.5 52.6096C53.9083 52.6096 53.3414 53.1309 53.3687 53.7429C53.3962 54.3569 53.8658 54.8762 54.5 54.8762C55.0917 54.8762 55.6586 54.3549 55.6312 53.7429C55.6037 53.1288 55.1342 52.6096 54.5 52.6096Z" fill="white"/>
<path d="M59.7587 75C62.5702 75 64.8577 72.7126 64.8577 69.901C64.8577 67.0894 62.5702 64.802 59.7587 64.802C58.5606 64.802 57.1268 65.5035 55.3757 66.9466C55.3671 66.9536 55.3588 66.9606 55.3502 66.9677L57.4633 69.0905C59.0792 67.7979 59.7309 67.7823 59.7587 67.7823C60.9269 67.7823 61.8774 68.7327 61.8774 69.901C61.8774 71.0692 60.927 72.0197 59.7587 72.0197C59.7297 72.0197 59.0277 72.003 57.271 70.5554C57.0679 70.388 53.7708 67.1845 53.482 66.9466C51.7309 65.5035 50.2971 64.802 49.099 64.802C46.2874 64.802 44 67.0894 44 69.901C44 72.7126 46.2874 75 49.099 75C50.2971 75 51.7308 74.2985 53.482 72.8554C53.49 72.8488 53.4977 72.8423 53.5056 72.8357L51.3993 70.7075C49.7801 72.0037 49.1269 72.0197 49.099 72.0197C47.9307 72.0197 46.9803 71.0693 46.9803 69.901C46.9803 68.7327 47.9307 67.7823 49.099 67.7823C49.1277 67.7823 49.9039 67.7063 51.5639 69.2278C52.4107 70.004 55.1647 72.6934 55.3756 72.8554C57.1751 74.2379 58.5606 75 59.7587 75Z" fill="white"/>
</svg>
