<svg width="110" height="110" viewBox="0 0 110 110" fill="none" xmlns="http://www.w3.org/2000/svg">
<circle cx="55" cy="55" r="54" stroke="#2D4497" stroke-width="2"/>
<path fill-rule="evenodd" clip-rule="evenodd" d="M54.3718 62H64.8718C65.4949 62 66 61.4939 66 60.8697V35.1303C66 34.5061 65.4949 34 64.8718 34H46.1282C45.5051 34 45 34.5061 45 35.1303V60.8697C45 61.4939 45.5051 62 46.1282 62H54.3718ZM59.0546 53.7429C59.0821 54.3569 59.5516 54.8762 60.1858 54.8762C60.7776 54.8762 61.3444 54.3549 61.3171 53.7429C61.2896 53.1288 60.82 52.6096 60.1858 52.6096C59.5941 52.6096 59.0272 53.1309 59.0546 53.7429ZM60.1859 39.9935H50.8141C50.191 39.9935 49.6859 40.4996 49.6859 41.1238C49.6859 41.748 50.191 42.2541 50.8141 42.2541H60.1859C60.809 42.2541 61.3141 41.748 61.3141 41.1238C61.3141 40.4996 60.809 39.9935 60.1859 39.9935ZM60.1859 44.9932H50.8141C50.191 44.9932 49.6859 45.4993 49.6859 46.1235C49.6859 46.7477 50.191 47.2538 50.8141 47.2538H60.1859C60.809 47.2538 61.3141 46.7477 61.3141 46.1235C61.3141 45.4993 60.809 44.9932 60.1859 44.9932ZM49.6829 53.7429C49.7103 54.3569 50.1799 54.8762 50.8141 54.8762C51.4058 54.8762 51.9727 54.3549 51.9453 53.7429C51.9179 53.1288 51.4483 52.6096 50.8141 52.6096C50.2224 52.6096 49.6555 53.1309 49.6829 53.7429ZM55.5 52.6096C54.9083 52.6096 54.3414 53.1309 54.3687 53.7429C54.3962 54.3569 54.8658 54.8762 55.5 54.8762C56.0917 54.8762 56.6586 54.3549 56.6312 53.7429C56.6037 53.1288 56.1342 52.6096 55.5 52.6096Z" fill="#2D4497"/>
<path d="M60.8662 75.2455C63.697 75.2455 66 72.9425 66 70.1117C66 67.2809 63.697 64.9779 60.8662 64.9779C59.6599 64.9779 58.2164 65.6842 56.4533 67.1371C56.4447 67.1442 56.4363 67.1513 56.4277 67.1584L58.5552 69.2956C60.1821 67.9942 60.8382 67.9785 60.8662 67.9785C62.0424 67.9785 62.9994 68.9354 62.9994 70.1117C62.9994 71.2879 62.0425 72.2448 60.8662 72.2448C60.837 72.2448 60.1303 72.2281 58.3615 70.7706C58.157 70.6021 54.8374 67.3767 54.5468 67.1371C52.7836 65.6842 51.3401 64.9779 50.1338 64.9779C47.303 64.9779 45 67.2809 45 70.1117C45 72.9425 47.303 75.2455 50.1338 75.2455C51.3401 75.2455 52.7836 74.5392 54.5467 73.0862C54.5547 73.0796 54.5625 73.0731 54.5705 73.0665L52.4497 70.9237C50.8196 72.2287 50.1619 72.2448 50.1338 72.2448C48.9576 72.2448 48.0006 71.288 48.0006 70.1117C48.0006 68.9355 48.9575 67.9786 50.1338 67.9786C50.1627 67.9786 50.9442 67.902 52.6155 69.4339C53.4681 70.2154 56.2409 72.9231 56.4532 73.0863C58.265 74.4782 59.6599 75.2455 60.8662 75.2455Z" fill="#2D4497"/>
</svg>
