<svg width="110" height="110" viewBox="0 0 110 110" fill="none" xmlns="http://www.w3.org/2000/svg">
<circle cx="55" cy="55" r="54" stroke="#2D4497" stroke-width="2"/>
<path d="M65.813 37.0225C65.7755 37.0195 65.744 37 65.705 37H49.58C47.099 37 45.08 39.019 45.08 41.5V43C45.08 43.828 45.752 44.5 46.58 44.5C47.408 44.5 48.08 43.828 48.08 43V41.5C48.08 40.6735 48.7535 40 49.58 40H56.5685L56.111 40.153C54.896 40.573 54.08 41.7175 54.08 43V65.5H49.58C48.7535 65.5 48.08 64.8265 48.08 64V61C48.08 60.172 47.408 59.5 46.58 59.5C45.752 59.5 45.08 60.172 45.08 61V64C45.08 66.481 47.099 68.5 49.58 68.5H54.08V70C54.08 71.6545 55.4255 73 57.08 73C57.401 73 57.7055 72.9535 58.0355 72.8515L67.0475 69.847C68.264 69.427 69.08 68.2825 69.08 67V40C69.08 38.251 67.5725 36.88 65.813 37.0225Z" fill="#2D4497"/>
<rect x="49.8987" y="46.55" width="3.07489" height="12.2995" rx="1.53744" transform="rotate(45 49.8987 46.55)" fill="#2D4497"/>
<rect x="51.8713" y="55.2471" width="3.07489" height="12.2995" rx="1.53744" transform="rotate(135 51.8713 55.2471)" fill="#2D4497"/>
</svg>
